<svg xmlns="http://www.w3.org/2000/svg" xmlns:xlink="http://www.w3.org/1999/xlink" viewBox="0 0 715.82 489.76"><defs><style>.cls-1{filter:url(#filter6123);}.cls-2{fill:url(#Unbenannter_Verlauf);}.cls-3{filter:url(#filter6119);}.cls-4{fill:url(#Unbenannter_Verlauf_2);}.cls-5{filter:url(#filter6135);}.cls-6{fill:url(#Unbenannter_Verlauf_3);}.cls-7{fill:#3a494b;}.cls-8{fill:#b9f9ff;}.cls-9{fill:#506467;}.cls-10,.cls-12{fill:#fff;}.cls-11,.cls-18{opacity:0.5;}.cls-12{stroke:#000;stroke-miterlimit:10;stroke-width:0.25px;}.cls-13{fill:#394655;}.cls-14{fill:#e1d6b9;}.cls-15{opacity:0.3;}.cls-16{fill:#96d6ff;}.cls-17{fill:none;stroke:#fd5750;}.cls-18{fill:#d86613;}.cls-19{fill:#384596;}</style><filter id="filter6123" x="-89.1" y="-124.32" width="1.02" height="1.05" name="filter6123"><feGaussianBlur result="feGaussianBlur6125" stdDeviation="0.73"/></filter><linearGradient id="Unbenannter_Verlauf" x1="808.78" y1="238.78" x2="914.72" y2="106.59" gradientTransform="translate(30.12 370.69) scale(0.8)" gradientUnits="userSpaceOnUse"><stop offset="0" stop-opacity="0.54"/><stop offset="1" stop-color="#3a494b" stop-opacity="0"/></linearGradient><filter id="filter6119" x="-89.1" y="-124.32" width="1.02" height="1.05" name="filter6119"><feGaussianBlur result="feGaussianBlur6121" stdDeviation="0.73"/></filter><linearGradient id="Unbenannter_Verlauf_2" x1="1158.78" y1="238.78" x2="1264.72" y2="106.59" gradientTransform="matrix(-0.8, 0, 0, 0.8, 1143.87, 373.01)" xlink:href="#Unbenannter_Verlauf"/><filter id="filter6135" x="-89.1" y="-124.32" width="1.02" height="1.04" name="filter6135"><feGaussianBlur result="feGaussianBlur6137" stdDeviation="0.58"/></filter><radialGradient id="Unbenannter_Verlauf_3" cx="809.83" cy="-148.72" r="83.8" gradientTransform="matrix(0.06, 0.53, 0.79, -0.08, 515.59, 126.03)" xlink:href="#Unbenannter_Verlauf"/></defs><title>go-power-ai</title><g id="gopher"><g id="layer11"><g class="cls-1"><path class="cls-2" d="M666.62,509.67s39.87-7.17,60-8c25.69-1.11,77.07,3.62,77.07,3.62,8-13.07-26.71-50.18-49.11-52.9,0,0-29,29.26-51.06,34.83-1.32-.27-49.94,15.59-49.94,15.59l-13.79,4Z" transform="translate(-89.09 -124.3)"/></g><g class="cls-3"><path class="cls-4" d="M227.37,512s-39.87-7.17-60-8c-25.7-1.11-77.08,3.62-77.08,3.62-8-13.07,26.71-50.18,49.12-52.9,0,0,29,29.26,51,34.83,1.33-.27,49.94,15.59,49.94,15.59l13.79,4Z" transform="translate(-89.09 -124.3)"/></g><g class="cls-5"><path class="cls-6" d="M399.38,568.79c13.12-8.25,7.87-11.63,27.37-9.38s46.88-1.5,53.25-.37,15,9.37,16.5,12.75S512.25,598,510.38,604s-29.63,13.87-61.13,7.87-59.25-10.5-68.62-12.37S399.38,568.79,399.38,568.79Z" transform="translate(-89.09 -124.3)"/></g></g><g id="layer3"><g id="g4825"><ellipse id="ellipse5049" class="cls-7" cx="144.52" cy="27.19" rx="73.37" ry="27.19"/><ellipse id="path5032" class="cls-8" cx="145.32" cy="30.42" rx="71.08" ry="25.29"/><path id="path5162" class="cls-9" d="M216.5,156l-28.12,17.87c12.89,4,29.34,6.13,46.36,6.13H236l12-18Z" transform="translate(-89.09 -124.3)"/><path id="rect4958" class="cls-7" d="M216.39,156.05c10.44-8.05,33.48-6,35,.54-3,27-9.57,53.35-15.4,79.82-6,27.23-10.29,55.08-8.86,83,1.9,37.5,9.46,74.43,15.4,111.44,4.07,25.35,8.71,50.61,14.14,75.71-3.1,8.4-33.69,7.84-35.14.22-11-50.35-14.54-101.89-19.66-153.07-3.15-31.5-3.53-63.32.57-94.76,4.48-34.35,12.07-68.27,13.95-102.93Z" transform="translate(-89.09 -124.3)"/><path id="rect4960" class="cls-8" d="M250.26,156.68c-4,33.15-13.67,67.82-19.44,100.66-4.51,25.63-7.09,50.8-4.42,76.73,3.87,37.45,10.45,75.44,16.42,112.6,3.05,18.93,8,40.38,11.93,59.14-2.05,4.47-11.58,4.32-17.31,4.33-10.44-49.35-13.6-106.55-19.55-156.59-3.62-30.45-4.11-61.34.24-91.76,5-34.59,9.31-74.35,12.58-109.2,4.23-1.42,18.07-.16,19.55,4.09Z" transform="translate(-89.09 -124.3)"/><path id="ellipse5069" class="cls-7" d="M193.49,196.08c-24.76.22-40.77,4-41.43,9.72-.8,7.15,22.18,15.65,55.33,20.45q.86-5.33,1.72-10.64c1.69-1.4,5.65-2,10.2-1.92,8.59.09,19.25,2.39,20.53,5.51-.76,3.35-1.5,6.71-2.25,10.06,34.24,1.9,59.51-2,60.38-9.24,1-8.43-30.89-18.45-71.19-22.38h0a320.18,320.18,0,0,0-33.29-1.56Z" transform="translate(-89.09 -124.3)"/><path id="ellipse5071" class="cls-8" d="M186.45,202.73c-20.5.21-33.18,2.77-33.64,6.8-.63,5.59,22.08,12.68,54.53,17l1.77-10.95c1.69-1.4,5.65-2,10.2-1.92,8.59.09,19.25,2.39,20.53,5.51q-1.16,5.13-2.3,10.27c32.42,1.94,56-.62,56.64-6.16.75-6.54-30.28-14.93-69.32-18.73h0a369.67,369.67,0,0,0-38.41-1.85Z" transform="translate(-89.09 -124.3)"/><path id="ellipse5087" class="cls-7" d="M155.93,307.54c-8.58,0-13.41.81-13.85,2.46-1.21,4.5,30.13,13.65,70,20.44s73.21,8.64,74.42,4.14c.07-1.28-.32-3.66-1.5-4.76-1.48-1.38-3.68-1.6-6.88-2.8-10.13-3.78-28.69-6.78-51.14-11q0,1.44.12,2.88c-1.58.41-5.3.59-13.56-.08-7.76-.63-11.85-1.65-14-2.64,0-1.56,0-3.13-.07-4.7-17.48-2.48-33-3.89-43.54-3.95Z" transform="translate(-89.09 -124.3)"/><path id="ellipse5089" class="cls-8" d="M151.32,306.48c-3.83,0-5.91.36-6.12,1-.83,2.73,29.84,10.05,68.52,16.36s70.72,9.21,71.55,6.48h0c.71-2.45-24.08-8.67-58.29-14.62,0,1.06.07,2.12.13,3.19-1.58.41-5.3.59-13.56-.08-7.76-.63-11.85-1.65-14-2.64,0-1.62-.06-3.24-.07-4.86C178.12,308.25,160.31,306.46,151.32,306.48Z" transform="translate(-89.09 -124.3)"/><path id="path5167" class="cls-9" d="M209.11,215.7l-18.62,8.2c5.33,1,11,1.87,16.86,2.66Q208.24,221.13,209.11,215.7Z" transform="translate(-89.09 -124.3)"/><path id="path5187" class="cls-9" d="M179,308.64l20.12,7.21h.45c0-1.5-.06-3-.07-4.51-7.24-1-14.16-1.95-20.5-2.69Z" transform="translate(-89.09 -124.3)"/><path id="path5195" class="cls-8" d="M233.61,125.12l-1.65,0c5.41,4-28.83,8-45.86,12.48l47.34-1.5L258.11,152l31.76,15.27,4.1-.34c8.47-4.54,12.4-9.82,12.41-15.34,0-15-32.25-26.47-72.77-26.47Z" transform="translate(-89.09 -124.3)"/><path id="path5202" class="cls-8" d="M198.23,196.74c-.76,5.38-15.92,5.71-25.42,8.14,0,0,14,5.8,19.85,6s27.77-.64,34.71-.85,31.88,3.84,48.37,12.16a47.8,47.8,0,0,1,8.3,5.09c8.28-1.69,12.9-4.16,13.28-7.11,1-8.26-30.74-18.07-70.82-21.92-9.66-.92-19.27-1.44-28.27-1.52Z" transform="translate(-89.09 -124.3)"/><path id="path5209" class="cls-8" d="M167.29,308a356.27,356.27,0,0,1,41.65,21.66l3,.53c39.78,6.71,73,8.54,74.21,4.09.07-1.27-.32-3.61-1.5-4.71-1.46-1.36-3.66-1.58-6.85-2.76a142.38,142.38,0,0,0-19.43-5l-18.74.62-15-3.37a86.33,86.33,0,0,1-11.28-.37c-7.74-.63-11.81-1.64-14-2.61-19-1.35-18.8-7.05-32.17-8.1Z" transform="translate(-89.09 -124.3)"/></g><g id="g4809"><ellipse id="ellipse5047" class="cls-7" cx="565.16" cy="32.79" rx="75.1" ry="28.26"/><ellipse id="ellipse5034" class="cls-8" cx="563.13" cy="35.87" rx="71.08" ry="25.29"/><path id="path5177" class="cls-9" d="M669.28,157.76l-31.76,2.47,40.13,23.55c11.06-1.51,20.88-4,28.58-7.18Z" transform="translate(-89.09 -124.3)"/><path id="path4973" class="cls-7" d="M669.73,158c-10.44-8-33.48-6-35,.54,3,27,9.57,53.35,15.4,79.81,6,27.24,10.28,55.09,8.86,83-1.9,37.5-9.46,74.42-15.4,111.44-4.07,25.35-8.71,50.61-14.14,75.71,3.09,8.4,33.68,7.84,35.13.21,11-50.34,14.55-101.89,19.67-153.06,3.15-31.5,3.53-63.32-.57-94.76-4.48-34.35-12.07-68.27-13.95-102.93Z" transform="translate(-89.09 -124.3)"/><path id="path4975" class="cls-8" d="M635.86,158.64c4,33.15,13.67,67.82,19.44,100.66,4.51,25.63,7.09,50.8,4.42,76.73-3.87,37.45-10.45,75.44-16.43,112.59-3,18.94-7.94,40.39-11.93,59.15,2.06,4.47,8.51,3.7,14.23,3.71C656,462.14,664,417.32,670,367.28c3.62-30.45,4.12-61.33-.24-91.75-5-34.6-11.05-86.13-14.32-121-5.11-1.68-18.46-.19-19.55,4.09Z" transform="translate(-89.09 -124.3)"/><path id="ellipse5075" class="cls-7" d="M685,202.86c-7,0-14.34.37-21.67.94C622.94,207,590.78,217,591.5,226.2c.64,7.8,25,12.7,58.54,11.78q-1-4.71-2.1-9.4c2.22-3.18,12.33-5.82,20.44-6,4.33-.12,8.07.46,9.76,2,.61,3.72,1.2,7.45,1.8,11.17,34.2-4.21,58.44-13,57.85-21-.58-7.31-22-12.13-52.78-11.89Z" transform="translate(-89.09 -124.3)"/><path id="ellipse5077" class="cls-8" d="M692.45,210.76c-8.79,0-18.2.4-27.68,1.14-39.13,3.06-70.41,11.34-69.85,18.48.51,6,23.35,9.4,55.28,8.31,0-.11-.05-.22-.07-.33-.72-3.26-1.46-6.52-2.19-9.78,2.22-3.18,12.33-5.82,20.44-6,4.33-.12,8.07.46,9.76,2q1,6,1.92,11.94c33.3-3.78,57.05-11,56.59-17.21-.41-5.19-17.82-8.55-44.2-8.52Z" transform="translate(-89.09 -124.3)"/><path id="ellipse5081" class="cls-7" d="M701.89,313.53c-4.83,0-9.95,0-15.26.16,0,1.45,0,2.9,0,4.35-3.72,2.11-25.9,3.83-27.53,1.82q.11-2.43.15-4.86c-31.87,2.21-57.35,6-64.1,9.9a3.07,3.07,0,0,0-1.68,2.23c-.18,4.66,32.42,6.56,72.81,4.25s73.28-8,73.45-12.63c.12-3.08-14.37-5.09-37.79-5.22Z" transform="translate(-89.09 -124.3)"/><path id="ellipse5083" class="cls-8" d="M712.18,313.8c-7.46,0-16.17.24-25.56.65,0,1.2,0,2.39,0,3.59-3.72,2.11-25.9,3.83-27.53,1.82.06-1.28.1-2.55.13-3.83-36,2.59-63.48,6.55-63.71,9.18-.21,2.85,31.32,3.11,70.43.6h0c39.11-2.51,71-6.85,71.18-9.69.11-1.52-9-2.37-24.91-2.32Z" transform="translate(-89.09 -124.3)"/><path id="path5172" class="cls-9" d="M678.13,224.54h0q1,6,1.92,11.94c6.5-.74,12.77-1.63,18.64-2.65l-20.57-9.3Z" transform="translate(-89.09 -124.3)"/><path id="path5182" class="cls-9" d="M703.81,313.91c-5.35.1-11.13.28-17.19.54,0,1.14,0,2.28,0,3.43l17.23-4Z" transform="translate(-89.09 -124.3)"/><path id="path5200" class="cls-8" d="M652.92,130.56l1.66,0c-5.41,3.95,28.82,8,45.85,12.47l-47.34-1.49-24.67,15.88-31.76,15.27-4.09-.34c-8.47-4.54-12.41-9.82-12.41-15.34,0-15,32.24-26.48,72.76-26.48Z" transform="translate(-89.09 -124.3)"/><path id="path5207" class="cls-8" d="M691.86,203.52c.66,5.4,15.81,6,25.26,8.65,0,0-14.11,5.52-20,5.61s-27.75-1.18-34.69-1.53-32,3.22-48.59,11.22a48.13,48.13,0,0,0-8.41,4.92c-8.24-1.85-6.71,5.84-13.13-5.41-.81-8.27,31.08-19.42,71.23-22.48,9.68-.74,19.3-1.07,28.29-1Z" transform="translate(-89.09 -124.3)"/><path id="path5214" class="cls-8" d="M686.66,317.93c-3.7,2.06-25.79,3.74-27.41,1.77.07-1.58.11-3.16.14-4.74-31.74,2.16-57.11,5.89-63.83,9.66a3,3,0,0,0-1.68,2.17c-.18,4.55,32.29,6.4,72.52,4.15q9-.51,17.47-1.23c2.5-8.6,24.08-8.61,31.54-12.57-6.28-.55-14.11,1.35-28.75.79Z" transform="translate(-89.09 -124.3)"/></g></g><g id="layer10"><path id="path4968" class="cls-10" d="M551.25,124.79l9,2.25L558,134.91l3,8.73-4.14,5.9-4.16,9.9-15.43,18.9-11.95-8.07-.29-12.14,3-2.22,15.75-5.62-3-12.38,1.88-4.12-3.75,2.62,2.62,12.38-18.2,7.28-9.92-1.28L511.5,142l-10.87-3,9,3.75.75,13.5L522.75,160l.36,11.26-7.86,7.86-5.62,10.13-24,8.62-4.2,15.21-5.06,8.46-3.12,9.33,1,3.56,3.33-11,4.85-8.16-.58,9.78.27,0-1.66,15.15-6.89,10.87-1.84,14.18,3,1.07,1.46-15,7-11.54v-13.5l7.83,8.86,7-5,8,8.36-3.32,15.51,12.77.11L496.2,276.55l.86,1.14,6.84-7.5,9.66,2.35L512.07,279l6.94,4.34-3.67,7.4,4.13.94,2.09,11.95-1.84-.35-5.3-9.28,1.4,3.81-16.25-1-8.22,7.29-7.56.4.14,1.72,7.69-.79,7.82-7.29,16.73.65,2.23,6.11,11.78,1.62,2.07,7.55-10.12,9.78-21.69,5.83.72,1.95L521,325.81l3.9,1-.38,4.22L526,326l-3.15-1,10-7.85,11.92,12.29-4.86,7.17-6.1.27L532.2,340l-.15-.24-21.34,7.42-3,7.82-9.55,5.84-15.64-10.87,2.65,3.57L497.85,362l.14-.08,3.57,4.72-4.38,3.71-3.71-1.59,3.85,2.92,4.83-4.58,5.54.83-.41,1.83-1.45.33,1.78-.09.45-2,2.64.52,1.78-1.6,1.55-.47-2.15.14L510.61,368l-2.33-.3,1.86-2-.66-1.59.1,1.54-1.69,1.74-5.65-1.1-3.13-5.11,9.25-5.41,4,1.22,5.28-2.9,2.83,2.26,1,5.36.31-5.76-1.38-1,3.42-2.33-3.43-4.87,1.83,4.78-2.38,2-1.83-1.33L512.49,356l-3.4-1.42,2.55-6.82,19.45-6.93,5.47,5.34-1.32,5.44,2.25-5.7-5.12-5.78,2.06-2.24,6.71-.37,4.69-7.73L567.34,327l7.37,15.76-5.4,8.75,4.24,5.3-2.38-5.57,4.54-6.36.49,1.06,17.5-2.12,8.76,4.77-9.82-7.42-14.85,2.12L569.92,324l5.33-8.7,8.63,5.62,3.58,1.38,8.1,13.32,19.89-1.33,6.63-4.51-4,.53-4,2.65-15.91,1.33-8-10.95,5,1.89,2-1-3.47-1.31,3.32-3.43,6.49-.27,3.5-4.54,10.1,2.5,10.06,5.72.79-1.33-9.84-6.08-4.11-.78,2.45-2.22-.57-6.93-.75,6.84-3.24,1.92-5.15-1-5.36,5-5.68-.45-4.77,4-5.51-2.07-8.63-8,8.34-8.7,3.57-9,14.25,2.32-5.65,6.28-3.35-.54-3.28,1.59-.75-1.31.65,2.25,3.38-1.87,3.08.61,1,3.79v-3.93l5.76-6.74.52.08L619.78,290l8.63,19.32,11,3.84,3.28,3.19,1.4.09-3.84-3.84-10.59-3.66-9.1-21-.36.16,1-5.86,2.92-1.23,3.83,3.46-2.25,5.35,3.22-5.24,2,.41.75-1,0-1.5-.19,1.31-.79.92-1.8-.4-4.21-3.77.17-2.91,2.25-2.35-3,1.69-.09,3-2.65,1.17-4.38-1.82-1.69-5,.75,5.53,4.12,1.69-.93,7-15.29,6.7-15.32-2.31-2.31-4-4-.8-1.86-6.69,1.26,7.36,3.78.79,2.12,3.89-3.13,8.86-8.79,8.34-.3-.28-8.62,11.25-22.5,4.5-10-11.27-3.25-9.31,4.2-3.61-.47-5.15.75-2.72-1.69,2.72.37,4.5-4.51,3.81-7.09-1.35-2.65-13.15-3.93-.47,3.73-6.93-6.94-4.51,1.52-6.37L505,269l15.9-17.46,12.29,5.12-2.73,6.5,5.81,4.69,5.63-3.56L536.81,266l-3.93-3.18,2.67-6.62L546.38,247l13.33,3.07,2.23,6.86-2.44,10.32,4.13-11.07L561.55,250l11.08-8.21,17,1.08,15.26,5.67,17.62-3,6.21-7.25-2.39.4-4.24,6L605,247.44l-10.29-4.69,4.57-2.93,3.47-7.69-4.31,6.94-4.86,3.16L590.94,241l3.69-10.13-1-1.58,4.42-4.92,10.61,1,4.63,6.55,5.57-1.59-4.59-.64-3.77-4.15h.14l13-8.22-14.06,7.43-11.93-1.59-4.76,4.92-.79-1.31-1.34,3.5-7.62,7.88-12.79,1.37-10.13,7.87-13.36-2,1.47-7.6-9-9,6.89,9.54-1.51,7.56-10.35,7.94-13.26-4.08-1.46-3.1,3.47-4.07-5.44-1.69,3.37,1.69-3.15,3.13,1.64,3.84L515.71,254l-11.5-1.48,3.18-15.65-9.54-8-6.1,4.77-8-8.52.5-14.4,3.24-11.32,23.63-4.87,5.62-13.5,6.75-8.25,14.33,9.31L543,201.66l15.75-2.25,6.38,7.13-6.75-9.75-13.88,3-4.26-19.36,15.89-19.27,7.5-15.37,8.34,4.49,2.48,5.23-8.32,3.23.26,8.49,2.92-7.16,6.25-2.22,9.63,20.36-1.56,5.72-7.69,4.51,9.81-4.51.49-4.1,14.85-8,8.79,3.38,7.69-4-8.22,2.91-7-3.18,4.89-8.49-5.84,7.16-13.25,7.16-13.22-24.91,6,3.21.21-1.44-16.38-8.73,2.39-2.39,7.78-12.85,9.37,6,19.88-2.25,6.75,1.88-5.25-3.75L583.88,133l-8.63-7.5-10.17,13.89-5.2-4.89,4.12-8.25Zm-267,8.43,3.19.94,16.87,3.56,6.3,15.84-4.49-2.49.15,3.69L323,164.92l-24.26,9.74-7.53-3.15-8-23.37h-13L281.34,150l6.84,20.27L279,166.41l19.31,10.13,26.07-10.69h.11L342.86,177l-.17,16.54-5-2.84-5.25,6.51-13.86-6.49,13.3,8.84,6.6-7.13,4.2,2.51,2.8,29.53-1.42.59v1.5L337.51,224l1.3-4.57-4.12-4.68,1.12-3.75-2.06,3.56,3.19,4.31-1.1,5.11-5.09,4.08-7.57,2.36-.23-.1,4.05-4.89,2.25-8.06-7.69-10.5L326.81,218l-2,7.35-4.21,3.9v0l-4.89-2.38L294,199.79l-37.5,2.62,4.88,1.88,12.37-.76-6.46,9.57-4.78-1.32,6.1,2.12,8.15-10.55,15.37-.94,19.41,22.43L289.18,214l.84,2.34,2.39,1.48-11.34,6.44-10.6-6.37,10.34,8,14.05-6.52,22.6,13.92-18,2.18-8.81-4.87-3.75-3.19-2.82.94,4.32,2.43L300,236.54l.14,0-2.37,3.12-5.46-1.28-.56-3.84-.66,1.45.52.71.42,2-1.69,1.59-1.59-2.91.84-1.59-1.26,1.87,1.83,3-.75,1.64-1.18,0,1.74.38.61-2.06,1.69-1.5,5.36,1.12,2.18,8.91-2.06,5.81,3-5.67,6.95,7.55-3.1,5.9,4.79-6.65L301,248.7l.28-.54-2.25-8.25,3.77-3.61,15.94-1.3,1,20.26,19.28,4-6,6.51s-11.14,11.4-11.67,11.26c-.14,0-4.12,1.65-6.63,1.2a6.61,6.61,0,0,1-4.24-3.18l1.85,5,11.8-2L339,262l1.71-2.45,15.13,3.12.41,21.36,23.82-3.34,22.3,1.2.74-3-22.85-1-20.18,3.31.53-21.22-.91-.19-2-7.89,4.37-7-.4-9.55-.66,7-4.77,9.28,1.67,7.78-34.42-7.38.52-20.61,6.73-2.25,5.63-4.12,7.24,2.47-1.06,6-4.68,1.12,6-.56.72-6.2h0l2-3.14h15.85L390.59,238l29.54,29.26,1.88-1.46L395.2,237l6.8-12.06.75-13.56,21.78-7,12.2-7.69,5.56,24.66L464,234.58l2.74-1-22.36-13.85-6.37-24.93-13.26,7.69L403,207.06l.14-2.4-12.75-11.25-.62-3.29,7.94-2.6,4.21,2.38L399.38,197l3.18-7.31-4-3-1.77-9-4.31,2.06h3.75l1.31,6.38L389.41,188l.59-4-.73,1.63L388,184l-3.51-1.64-2.16,3.09,2.25-2.39,2.77,1.17,1.69,2-.76,1.69.57,4.43-1.52,1.51-9.31.68-2.62,7.12,3.37-5.62h9.67l12.08,10.12-1.13,17.89-6.73,10.54L363,222.12l-13.79-1.06-3.15-27.7,2.05-18.63,7-13.57,9-1.87,1.5-13.13-3.75,11.25-8.63,1.5-7,14.4L314.29,155.6,306.19,137ZM589.33,234.16l-1.33,3.5-2,.21Zm-262.91,56.1,1.06,4.78-2.48,3.3-2.83-5.43,1.07,6.9,5.56,6.89-5.56,12.47.09.11-1.95-1.44-4.24,18-16.44-9.54-2,.39-5.44-7.82-.08,0-1.51-4.53,1.59-6.89-2.91,6.36,1.45,5.35-11,2.34-5.57-2.91-7.69,5.83,6.1-4,6.63,2.12L293,321l4.09,6-8.22,1.64L279,323.14l-18.82,2.92,2.91.8L279.22,325l6,4.43-.87.17,2.07,4.15,11.21-1.55-6.89,5-4.59,9.5L271,336.67h-2.65l19.35,12.46,5.84-10.63,8.84-6.55,12.43,6.39,1.27,13.71,10.34.53,1.85,9,.53-12.19-11.13,1.06,1.22-10,1.43.74,3.71-18,32.24,22.68-8.64,11.26,5,14.59-1.59,5.3,4.51-6.89-6.37-12.73,9.53-10.82,5.53-4.08,15.78,4.71,6.38,23.63,15.94-6.38,22.12-3.94-1.31-5.06-22.31,7.13-12.57,6.93L381,346l-15.41-4.56,11.33-8.37,24-5.82-.5-2-20.35,5,5.13-8.7-10.47-2.59,2.91-6.39,11.24-2.06,13.88-11.44,2.06-2.62-16.75,12.78-11.75,2.22-.06.13-12.69-4.82-4.31,3.37-5.06-1.12,6.19,2.62,3.37-2.62,11.67,4.23-3.08,6.23,11.34,2.31-5.32,8.88-2.36.59-18,13.55L325.68,321l5.78-14-5.25-6.68,2.59-4.19Z" transform="translate(-89.09 -124.3)"/></g><g id="g5475" class="cls-11"><path id="path6200" class="cls-12" d="M551.25,124.79l9,2.25L558,134.91l3,8.73-4.14,5.9-4.16,9.9-15.43,18.9-11.95-8.07-.29-12.14,3-2.22,15.75-5.62-3-12.38,1.88-4.12-3.75,2.62,2.62,12.38-18.2,7.28-9.92-1.28L511.5,142l-10.87-3,9,3.75.75,13.5L522.75,160l.36,11.26-7.86,7.86-5.62,10.13-24,8.62-4.2,15.21-5.06,8.46-3.12,9.33,1,3.56,3.33-11,4.85-8.16-.58,9.78.27,0-1.66,15.15-6.89,10.87-1.84,14.18,3,1.07,1.46-15,7-11.54v-13.5l7.83,8.86,7-5,8,8.36-3.32,15.51,12.77.11L496.2,276.55l.86,1.14,6.84-7.5,9.66,2.35L512.07,279l6.94,4.34-3.67,7.4,4.13.94,2.09,11.95-1.84-.35-5.3-9.28,1.4,3.81-16.25-1-8.22,7.29-7.56.4.14,1.72,7.69-.79,7.82-7.29,16.73.65,2.23,6.11,11.78,1.62,2.07,7.55-10.12,9.78-21.69,5.83.72,1.95L521,325.81l3.9,1-.38,4.22L526,326l-3.15-1,10-7.85,11.92,12.29-4.86,7.17-6.1.27L532.2,340l-.15-.24-21.34,7.42-3,7.82-9.55,5.84-15.64-10.87,2.65,3.57L497.85,362l.14-.08,3.57,4.72-4.38,3.71-3.71-1.59,3.85,2.92,4.83-4.58,5.54.83-.41,1.83-1.45.33,1.78-.09.45-2,2.64.52,1.78-1.6,1.55-.47-2.15.14L510.61,368l-2.33-.3,1.86-2-.66-1.59.1,1.54-1.69,1.74-5.65-1.1-3.13-5.11,9.25-5.41,4,1.22,5.28-2.9,2.83,2.26,1,5.36.31-5.76-1.38-1,3.42-2.33-3.43-4.87,1.83,4.78-2.38,2-1.83-1.33L512.49,356l-3.4-1.42,2.55-6.82,19.45-6.93,5.47,5.34-1.32,5.44,2.25-5.7-5.12-5.78,2.06-2.24,6.71-.37,4.69-7.73L567.34,327l7.37,15.76-5.4,8.75,4.24,5.3-2.38-5.57,4.54-6.36.49,1.06,17.5-2.12,8.76,4.77-9.82-7.42-14.85,2.12L569.92,324l5.33-8.7,8.63,5.62,3.58,1.38,8.1,13.32,19.89-1.33,6.63-4.51-4,.53-4,2.65-15.91,1.33-8-10.95,5,1.89,2-1-3.47-1.31,3.32-3.43,6.49-.27,3.5-4.54,10.1,2.5,10.06,5.72.79-1.33-9.84-6.08-4.11-.78,2.45-2.22-.57-6.93-.75,6.84-3.24,1.92-5.15-1-5.36,5-5.68-.45-4.77,4-5.51-2.07-8.63-8,8.34-8.7,3.57-9,14.25,2.32-5.65,6.28-3.35-.54-3.28,1.59-.75-1.31.65,2.25,3.38-1.87,3.08.61,1,3.79v-3.93l5.76-6.74.52.08L619.78,290l8.63,19.32,11,3.84,3.28,3.19,1.4.09-3.84-3.84-10.59-3.66-9.1-21-.36.16,1-5.86,2.92-1.23,3.83,3.46-2.25,5.35,3.22-5.24,2,.41.75-1,0-1.5-.19,1.31-.79.92-1.8-.4-4.21-3.77.17-2.91,2.25-2.35-3,1.69-.09,3-2.65,1.17-4.38-1.82-1.69-5,.75,5.53,4.12,1.69-.93,7-15.29,6.7-15.32-2.31-2.31-4-4-.8-1.86-6.69,1.26,7.36,3.78.79,2.12,3.89-3.13,8.86-8.79,8.34-.3-.28-8.62,11.25-22.5,4.5-10-11.27-3.25-9.31,4.2-3.61-.47-5.15.75-2.72-1.69,2.72.37,4.5-4.51,3.81-7.09-1.35-2.65-13.15-3.93-.47,3.73-6.93-6.94-4.51,1.52-6.37L505,269l15.9-17.46,12.29,5.12-2.73,6.5,5.81,4.69,5.63-3.56L536.81,266l-3.93-3.18,2.67-6.62L546.38,247l13.33,3.07,2.23,6.86-2.44,10.32,4.13-11.07L561.55,250l11.08-8.21,17,1.08,15.26,5.67,17.62-3,6.21-7.25-2.39.4-4.24,6L605,247.44l-10.29-4.69,4.57-2.93,3.47-7.69-4.31,6.94-4.86,3.16L590.94,241l3.69-10.13-1-1.58,4.42-4.92,10.61,1,4.63,6.55,5.57-1.59-4.59-.64-3.77-4.15h.14l13-8.22-14.06,7.43-11.93-1.59-4.76,4.92-.79-1.31-1.34,3.5-7.62,7.88-12.79,1.37-10.13,7.87-13.36-2,1.47-7.6-9-9,6.89,9.54-1.51,7.56-10.35,7.94-13.26-4.08-1.46-3.1,3.47-4.07-5.44-1.69,3.37,1.69-3.15,3.13,1.64,3.84L515.71,254l-11.5-1.48,3.18-15.65-9.54-8-6.1,4.77-8-8.52.5-14.4,3.24-11.32,23.63-4.87,5.62-13.5,6.75-8.25,14.33,9.31L543,201.66l15.75-2.25,6.38,7.13-6.75-9.75-13.88,3-4.26-19.36,15.89-19.27,7.5-15.37,8.34,4.49,2.48,5.23-8.32,3.23.26,8.49,2.92-7.16,6.25-2.22,9.63,20.36-1.56,5.72-7.69,4.51,9.81-4.51.49-4.1,14.85-8,8.79,3.38,7.69-4-8.22,2.91-7-3.18,4.89-8.49-5.84,7.16-13.25,7.16-13.22-24.91,6,3.21.21-1.44-16.38-8.73,2.39-2.39,7.78-12.85,9.37,6,19.88-2.25,6.75,1.88-5.25-3.75L583.88,133l-8.63-7.5-10.17,13.89-5.2-4.89,4.12-8.25Zm-267,8.43,3.19.94,16.87,3.56,6.3,15.84-4.49-2.49.15,3.69L323,164.92l-24.26,9.74-7.53-3.15-8-23.37h-13L281.34,150l6.84,20.27L279,166.41l19.31,10.13,26.07-10.69h.11L342.86,177l-.17,16.54-5-2.84-5.25,6.51-13.86-6.49,13.3,8.84,6.6-7.13,4.2,2.51,2.8,29.53-1.42.59v1.5L337.51,224l1.3-4.57-4.12-4.68,1.12-3.75-2.06,3.56,3.19,4.31-1.1,5.11-5.09,4.08-7.57,2.36-.23-.1,4.05-4.89,2.25-8.06-7.69-10.5L326.81,218l-2,7.35-4.21,3.9v0l-4.89-2.38L294,199.79l-37.5,2.62,4.88,1.88,12.37-.76-6.46,9.57-4.78-1.32,6.1,2.12,8.15-10.55,15.37-.94,19.41,22.43L289.18,214l.84,2.34,2.39,1.48-11.34,6.44-10.6-6.37,10.34,8,14.05-6.52,22.6,13.92-18,2.18-8.81-4.87-3.75-3.19-2.82.94,4.32,2.43L300,236.54l.14,0-2.37,3.12-5.46-1.28-.56-3.84-.66,1.45.52.71.42,2-1.69,1.59-1.59-2.91.84-1.59-1.26,1.87,1.83,3-.75,1.64-1.18,0,1.74.38.61-2.06,1.69-1.5,5.36,1.12,2.18,8.91-2.06,5.81,3-5.67,6.95,7.55-3.1,5.9,4.79-6.65L301,248.7l.28-.54-2.25-8.25,3.77-3.61,15.94-1.3,1,20.26,19.28,4-6,6.51s-11.14,11.4-11.67,11.26c-.14,0-4.12,1.65-6.63,1.2a6.61,6.61,0,0,1-4.24-3.18l1.85,5,11.8-2L339,262l1.71-2.45,15.13,3.12.41,21.36,23.82-3.34,22.3,1.2.74-3-22.85-1-20.18,3.31.53-21.22-.91-.19-2-7.89,4.37-7-.4-9.55-.66,7-4.77,9.28,1.67,7.78-34.42-7.38.52-20.61,6.73-2.25,5.63-4.12,7.24,2.47-1.06,6-4.68,1.12,6-.56.72-6.2h0l2-3.14h15.85L390.59,238l29.54,29.26,1.88-1.46L395.2,237l6.8-12.06.75-13.56,21.78-7,12.2-7.69,5.56,24.66L464,234.58l2.74-1-22.36-13.85-6.37-24.93-13.26,7.69L403,207.06l.14-2.4-12.75-11.25-.62-3.29,7.94-2.6,4.21,2.38L399.38,197l3.18-7.31-4-3-1.77-9-4.31,2.06h3.75l1.31,6.38L389.41,188l.59-4-.73,1.63L388,184l-3.51-1.64-2.16,3.09,2.25-2.39,2.77,1.17,1.69,2-.76,1.69.57,4.43-1.52,1.51-9.31.68-2.62,7.12,3.37-5.62h9.67l12.08,10.12-1.13,17.89-6.73,10.54L363,222.12l-13.79-1.06-3.15-27.7,2.05-18.63,7-13.57,9-1.87,1.5-13.13-3.75,11.25-8.63,1.5-7,14.4L314.29,155.6,306.19,137ZM589.33,234.16l-1.33,3.5-2,.21Zm-262.91,56.1,1.06,4.78-2.48,3.3-2.83-5.43,1.07,6.9,5.56,6.89-5.56,12.47.09.11-1.95-1.44-4.24,18-16.44-9.54-2,.39-5.44-7.82-.08,0-1.51-4.53,1.59-6.89-2.91,6.36,1.45,5.35-11,2.34-5.57-2.91-7.69,5.83,6.1-4,6.63,2.12L293,321l4.09,6-8.22,1.64L279,323.14l-18.82,2.92,2.91.8L279.22,325l6,4.43-.87.17,2.07,4.15,11.21-1.55-6.89,5-4.59,9.5L271,336.67h-2.65l19.35,12.46,5.84-10.63,8.84-6.55,12.43,6.39,1.27,13.71,10.34.53,1.85,9,.53-12.19-11.13,1.06,1.22-10,1.43.74,3.71-18,32.24,22.68-8.64,11.26,5,14.59-1.59,5.3,4.51-6.89-6.37-12.73,9.53-10.82,5.53-4.08,15.78,4.71,6.38,23.63,15.94-6.38,22.12-3.94-1.31-5.06-22.31,7.13-12.57,6.93L381,346l-15.41-4.56,11.33-8.37,24-5.82-.5-2-20.35,5,5.13-8.7-10.47-2.59,2.91-6.39,11.24-2.06,13.88-11.44,2.06-2.62-16.75,12.78-11.75,2.22-.06.13-12.69-4.82-4.31,3.37-5.06-1.12,6.19,2.62,3.37-2.62,11.67,4.23-3.08,6.23,11.34,2.31-5.32,8.88-2.36.59-18,13.55L325.68,321l5.78-14-5.25-6.68,2.59-4.19Z" transform="translate(-89.09 -124.3)"/><path id="path6275" class="cls-12" d="M551.25,124.79l9,2.25L558,134.91l3,8.73-4.14,5.9-4.16,9.9-15.43,18.9-11.95-8.07-.29-12.14,3-2.22,15.75-5.62-3-12.38,1.88-4.12-3.75,2.62,2.62,12.38-18.2,7.28-9.92-1.28L511.5,142l-10.87-3,9,3.75.75,13.5L522.75,160l.36,11.26-7.86,7.86-5.62,10.13-24,8.62-4.2,15.21-5.06,8.46-3.12,9.33,1,3.56,3.33-11,4.85-8.16-.58,9.78.27,0-1.66,15.15-6.89,10.87-1.84,14.18,3,1.07,1.46-15,7-11.54v-13.5l7.83,8.86,7-5,8,8.36-3.32,15.51,12.77.11L496.2,276.55l.86,1.14,6.84-7.5,9.66,2.35L512.07,279l6.94,4.34-3.67,7.4,4.13.94,2.09,11.95-1.84-.35-5.3-9.28,1.4,3.81-16.25-1-8.22,7.29-7.56.4.14,1.72,7.69-.79,7.82-7.29,16.73.65,2.23,6.11,11.78,1.62,2.07,7.55-10.12,9.78-21.69,5.83.72,1.95L521,325.81l3.9,1-.38,4.22L526,326l-3.15-1,10-7.85,11.92,12.29-4.86,7.17-6.1.27L532.2,340l-.15-.24-21.34,7.42-3,7.82-9.55,5.84-15.64-10.87,2.65,3.57L497.85,362l.14-.08,3.57,4.72-4.38,3.71-3.71-1.59,3.85,2.92,4.83-4.58,5.54.83-.41,1.83-1.45.33,1.78-.09.45-2,2.64.52,1.78-1.6,1.55-.47-2.15.14L510.61,368l-2.33-.3,1.86-2-.66-1.59.1,1.54-1.69,1.74-5.65-1.1-3.13-5.11,9.25-5.41,4,1.22,5.28-2.9,2.83,2.26,1,5.36.31-5.76-1.38-1,3.42-2.33-3.43-4.87,1.83,4.78-2.38,2-1.83-1.33L512.49,356l-3.4-1.42,2.55-6.82,19.45-6.93,5.47,5.34-1.32,5.44,2.25-5.7-5.12-5.78,2.06-2.24,6.71-.37,4.69-7.73L567.34,327l7.37,15.76-5.4,8.75,4.24,5.3-2.38-5.57,4.54-6.36.49,1.06,17.5-2.12,8.76,4.77-9.82-7.42-14.85,2.12L569.92,324l5.33-8.7,8.63,5.62,3.58,1.38,8.1,13.32,19.89-1.33,6.63-4.51-4,.53-4,2.65-15.91,1.33-8-10.95,5,1.89,2-1-3.47-1.31,3.32-3.43,6.49-.27,3.5-4.54,10.1,2.5,10.06,5.72.79-1.33-9.84-6.08-4.11-.78,2.45-2.22-.57-6.93-.75,6.84-3.24,1.92-5.15-1-5.36,5-5.68-.45-4.77,4-5.51-2.07-8.63-8,8.34-8.7,3.57-9,14.25,2.32-5.65,6.28-3.35-.54-3.28,1.59-.75-1.31.65,2.25,3.38-1.87,3.08.61,1,3.79v-3.93l5.76-6.74.52.08L619.78,290l8.63,19.32,11,3.84,3.28,3.19,1.4.09-3.84-3.84-10.59-3.66-9.1-21-.36.16,1-5.86,2.92-1.23,3.83,3.46-2.25,5.35,3.22-5.24,2,.41.75-1,0-1.5-.19,1.31-.79.92-1.8-.4-4.21-3.77.17-2.91,2.25-2.35-3,1.69-.09,3-2.65,1.17-4.38-1.82-1.69-5,.75,5.53,4.12,1.69-.93,7-15.29,6.7-15.32-2.31-2.31-4-4-.8-1.86-6.69,1.26,7.36,3.78.79,2.12,3.89-3.13,8.86-8.79,8.34-.3-.28-8.62,11.25-22.5,4.5-10-11.27-3.25-9.31,4.2-3.61-.47-5.15.75-2.72-1.69,2.72.37,4.5-4.51,3.81-7.09-1.35-2.65-13.15-3.93-.47,3.73-6.93-6.94-4.51,1.52-6.37L505,269l15.9-17.46,12.29,5.12-2.73,6.5,5.81,4.69,5.63-3.56L536.81,266l-3.93-3.18,2.67-6.62L546.38,247l13.33,3.07,2.23,6.86-2.44,10.32,4.13-11.07L561.55,250l11.08-8.21,17,1.08,15.26,5.67,17.62-3,6.21-7.25-2.39.4-4.24,6L605,247.44l-10.29-4.69,4.57-2.93,3.47-7.69-4.31,6.94-4.86,3.16L590.94,241l3.69-10.13-1-1.58,4.42-4.92,10.61,1,4.63,6.55,5.57-1.59-4.59-.64-3.77-4.15h.14l13-8.22-14.06,7.43-11.93-1.59-4.76,4.92-.79-1.31-1.34,3.5-7.62,7.88-12.79,1.37-10.13,7.87-13.36-2,1.47-7.6-9-9,6.89,9.54-1.51,7.56-10.35,7.94-13.26-4.08-1.46-3.1,3.47-4.07-5.44-1.69,3.37,1.69-3.15,3.13,1.64,3.84L515.71,254l-11.5-1.48,3.18-15.65-9.54-8-6.1,4.77-8-8.52.5-14.4,3.24-11.32,23.63-4.87,5.62-13.5,6.75-8.25,14.33,9.31L543,201.66l15.75-2.25,6.38,7.13-6.75-9.75-13.88,3-4.26-19.36,15.89-19.27,7.5-15.37,8.34,4.49,2.48,5.23-8.32,3.23.26,8.49,2.92-7.16,6.25-2.22,9.63,20.36-1.56,5.72-7.69,4.51,9.81-4.51.49-4.1,14.85-8,8.79,3.38,7.69-4-8.22,2.91-7-3.18,4.89-8.49-5.84,7.16-13.25,7.16-13.22-24.91,6,3.21.21-1.44-16.38-8.73,2.39-2.39,7.78-12.85,9.37,6,19.88-2.25,6.75,1.88-5.25-3.75L583.88,133l-8.63-7.5-10.17,13.89-5.2-4.89,4.12-8.25Zm-267,8.43,3.19.94,16.87,3.56,6.3,15.84-4.49-2.49.15,3.69L323,164.92l-24.26,9.74-7.53-3.15-8-23.37h-13L281.34,150l6.84,20.27L279,166.41l19.31,10.13,26.07-10.69h.11L342.86,177l-.17,16.54-5-2.84-5.25,6.51-13.86-6.49,13.3,8.84,6.6-7.13,4.2,2.51,2.8,29.53-1.42.59v1.5L337.51,224l1.3-4.57-4.12-4.68,1.12-3.75-2.06,3.56,3.19,4.31-1.1,5.11-5.09,4.08-7.57,2.36-.23-.1,4.05-4.89,2.25-8.06-7.69-10.5L326.81,218l-2,7.35-4.21,3.9v0l-4.89-2.38L294,199.79l-37.5,2.62,4.88,1.88,12.37-.76-6.46,9.57-4.78-1.32,6.1,2.12,8.15-10.55,15.37-.94,19.41,22.43L289.18,214l.84,2.34,2.39,1.48-11.34,6.44-10.6-6.37,10.34,8,14.05-6.52,22.6,13.92-18,2.18-8.81-4.87-3.75-3.19-2.82.94,4.32,2.43L300,236.54l.14,0-2.37,3.12-5.46-1.28-.56-3.84-.66,1.45.52.71.42,2-1.69,1.59-1.59-2.91.84-1.59-1.26,1.87,1.83,3-.75,1.64-1.18,0,1.74.38.61-2.06,1.69-1.5,5.36,1.12,2.18,8.91-2.06,5.81,3-5.67,6.95,7.55-3.1,5.9,4.79-6.65L301,248.7l.28-.54-2.25-8.25,3.77-3.61,15.94-1.3,1,20.26,19.28,4-6,6.51s-11.14,11.4-11.67,11.26c-.14,0-4.12,1.65-6.63,1.2a6.61,6.61,0,0,1-4.24-3.18l1.85,5,11.8-2L339,262l1.71-2.45,15.13,3.12.41,21.36,23.82-3.34,22.3,1.2.74-3-22.85-1-20.18,3.31.53-21.22-.91-.19-2-7.89,4.37-7-.4-9.55-.66,7-4.77,9.28,1.67,7.78-34.42-7.38.52-20.61,6.73-2.25,5.63-4.12,7.24,2.47-1.06,6-4.68,1.12,6-.56.72-6.2h0l2-3.14h15.85L390.59,238l29.54,29.26,1.88-1.46L395.2,237l6.8-12.06.75-13.56,21.78-7,12.2-7.69,5.56,24.66L464,234.58l2.74-1-22.36-13.85-6.37-24.93-13.26,7.69L403,207.06l.14-2.4-12.75-11.25-.62-3.29,7.94-2.6,4.21,2.38L399.38,197l3.18-7.31-4-3-1.77-9-4.31,2.06h3.75l1.31,6.38L389.41,188l.59-4-.73,1.63L388,184l-3.51-1.64-2.16,3.09,2.25-2.39,2.77,1.17,1.69,2-.76,1.69.57,4.43-1.52,1.51-9.31.68-2.62,7.12,3.37-5.62h9.67l12.08,10.12-1.13,17.89-6.73,10.54L363,222.12l-13.79-1.06-3.15-27.7,2.05-18.63,7-13.57,9-1.87,1.5-13.13-3.75,11.25-8.63,1.5-7,14.4L314.29,155.6,306.19,137ZM589.33,234.16l-1.33,3.5-2,.21Zm-262.91,56.1,1.06,4.78-2.48,3.3-2.83-5.43,1.07,6.9,5.56,6.89-5.56,12.47.09.11-1.95-1.44-4.24,18-16.44-9.54-2,.39-5.44-7.82-.08,0-1.51-4.53,1.59-6.89-2.91,6.36,1.45,5.35-11,2.34-5.57-2.91-7.69,5.83,6.1-4,6.63,2.12L293,321l4.09,6-8.22,1.64L279,323.14l-18.82,2.92,2.91.8L279.22,325l6,4.43-.87.17,2.07,4.15,11.21-1.55-6.89,5-4.59,9.5L271,336.67h-2.65l19.35,12.46,5.84-10.63,8.84-6.55,12.43,6.39,1.27,13.71,10.34.53,1.85,9,.53-12.19-11.13,1.06,1.22-10,1.43.74,3.71-18,32.24,22.68-8.64,11.26,5,14.59-1.59,5.3,4.51-6.89-6.37-12.73,9.53-10.82,5.53-4.08,15.78,4.71,6.38,23.63,15.94-6.38,22.12-3.94-1.31-5.06-22.31,7.13-12.57,6.93L381,346l-15.41-4.56,11.33-8.37,24-5.82-.5-2-20.35,5,5.13-8.7-10.47-2.59,2.91-6.39,11.24-2.06,13.88-11.44,2.06-2.62-16.75,12.78-11.75,2.22-.06.13-12.69-4.82-4.31,3.37-5.06-1.12,6.19,2.62,3.37-2.62,11.67,4.23-3.08,6.23,11.34,2.31-5.32,8.88-2.36.59-18,13.55L325.68,321l5.78-14-5.25-6.68,2.59-4.19Z" transform="translate(-89.09 -124.3)"/><path id="path6277" class="cls-12" d="M551.25,124.79l9,2.25L558,134.91l3,8.73-4.14,5.9-4.16,9.9-15.43,18.9-11.95-8.07-.29-12.14,3-2.22,15.75-5.62-3-12.38,1.88-4.12-3.75,2.62,2.62,12.38-18.2,7.28-9.92-1.28L511.5,142l-10.87-3,9,3.75.75,13.5L522.75,160l.36,11.26-7.86,7.86-5.62,10.13-24,8.62-4.2,15.21-5.06,8.46-3.12,9.33,1,3.56,3.33-11,4.85-8.16-.58,9.78.27,0-1.66,15.15-6.89,10.87-1.84,14.18,3,1.07,1.46-15,7-11.54v-13.5l7.83,8.86,7-5,8,8.36-3.32,15.51,12.77.11L496.2,276.55l.86,1.14,6.84-7.5,9.66,2.35L512.07,279l6.94,4.34-3.67,7.4,4.13.94,2.09,11.95-1.84-.35-5.3-9.28,1.4,3.81-16.25-1-8.22,7.29-7.56.4.14,1.72,7.69-.79,7.82-7.29,16.73.65,2.23,6.11,11.78,1.62,2.07,7.55-10.12,9.78-21.69,5.83.72,1.95L521,325.81l3.9,1-.38,4.22L526,326l-3.15-1,10-7.85,11.92,12.29-4.86,7.17-6.1.27L532.2,340l-.15-.24-21.34,7.42-3,7.82-9.55,5.84-15.64-10.87,2.65,3.57L497.85,362l.14-.08,3.57,4.72-4.38,3.71-3.71-1.59,3.85,2.92,4.83-4.58,5.54.83-.41,1.83-1.45.33,1.78-.09.45-2,2.64.52,1.78-1.6,1.55-.47-2.15.14L510.61,368l-2.33-.3,1.86-2-.66-1.59.1,1.54-1.69,1.74-5.65-1.1-3.13-5.11,9.25-5.41,4,1.22,5.28-2.9,2.83,2.26,1,5.36.31-5.76-1.38-1,3.42-2.33-3.43-4.87,1.83,4.78-2.38,2-1.83-1.33L512.49,356l-3.4-1.42,2.55-6.82,19.45-6.93,5.47,5.34-1.32,5.44,2.25-5.7-5.12-5.78,2.06-2.24,6.71-.37,4.69-7.73L567.34,327l7.37,15.76-5.4,8.75,4.24,5.3-2.38-5.57,4.54-6.36.49,1.06,17.5-2.12,8.76,4.77-9.82-7.42-14.85,2.12L569.92,324l5.33-8.7,8.63,5.62,3.58,1.38,8.1,13.32,19.89-1.33,6.63-4.51-4,.53-4,2.65-15.91,1.33-8-10.95,5,1.89,2-1-3.47-1.31,3.32-3.43,6.49-.27,3.5-4.54,10.1,2.5,10.06,5.72.79-1.33-9.84-6.08-4.11-.78,2.45-2.22-.57-6.93-.75,6.84-3.24,1.92-5.15-1-5.36,5-5.68-.45-4.77,4-5.51-2.07-8.63-8,8.34-8.7,3.57-9,14.25,2.32-5.65,6.28-3.35-.54-3.28,1.59-.75-1.31.65,2.25,3.38-1.87,3.08.61,1,3.79v-3.93l5.76-6.74.52.08L619.78,290l8.63,19.32,11,3.84,3.28,3.19,1.4.09-3.84-3.84-10.59-3.66-9.1-21-.36.16,1-5.86,2.92-1.23,3.83,3.46-2.25,5.35,3.22-5.24,2,.41.75-1,0-1.5-.19,1.31-.79.92-1.8-.4-4.21-3.77.17-2.91,2.25-2.35-3,1.69-.09,3-2.65,1.17-4.38-1.82-1.69-5,.75,5.53,4.12,1.69-.93,7-15.29,6.7-15.32-2.31-2.31-4-4-.8-1.86-6.69,1.26,7.36,3.78.79,2.12,3.89-3.13,8.86-8.79,8.34-.3-.28-8.62,11.25-22.5,4.5-10-11.27-3.25-9.31,4.2-3.61-.47-5.15.75-2.72-1.69,2.72.37,4.5-4.51,3.81-7.09-1.35-2.65-13.15-3.93-.47,3.73-6.93-6.94-4.51,1.52-6.37L505,269l15.9-17.46,12.29,5.12-2.73,6.5,5.81,4.69,5.63-3.56L536.81,266l-3.93-3.18,2.67-6.62L546.38,247l13.33,3.07,2.23,6.86-2.44,10.32,4.13-11.07L561.55,250l11.08-8.21,17,1.08,15.26,5.67,17.62-3,6.21-7.25-2.39.4-4.24,6L605,247.44l-10.29-4.69,4.57-2.93,3.47-7.69-4.31,6.94-4.86,3.16L590.94,241l3.69-10.13-1-1.58,4.42-4.92,10.61,1,4.63,6.55,5.57-1.59-4.59-.64-3.77-4.15h.14l13-8.22-14.06,7.43-11.93-1.59-4.76,4.92-.79-1.31-1.34,3.5-7.62,7.88-12.79,1.37-10.13,7.87-13.36-2,1.47-7.6-9-9,6.89,9.54-1.51,7.56-10.35,7.94-13.26-4.08-1.46-3.1,3.47-4.07-5.44-1.69,3.37,1.69-3.15,3.13,1.64,3.84L515.71,254l-11.5-1.48,3.18-15.65-9.54-8-6.1,4.77-8-8.52.5-14.4,3.24-11.32,23.63-4.87,5.62-13.5,6.75-8.25,14.33,9.31L543,201.66l15.75-2.25,6.38,7.13-6.75-9.75-13.88,3-4.26-19.36,15.89-19.27,7.5-15.37,8.34,4.49,2.48,5.23-8.32,3.23.26,8.49,2.92-7.16,6.25-2.22,9.63,20.36-1.56,5.72-7.69,4.51,9.81-4.51.49-4.1,14.85-8,8.79,3.38,7.69-4-8.22,2.91-7-3.18,4.89-8.49-5.84,7.16-13.25,7.16-13.22-24.91,6,3.21.21-1.44-16.38-8.73,2.39-2.39,7.78-12.85,9.37,6,19.88-2.25,6.75,1.88-5.25-3.75L583.88,133l-8.63-7.5-10.17,13.89-5.2-4.89,4.12-8.25Zm-267,8.43,3.19.94,16.87,3.56,6.3,15.84-4.49-2.49.15,3.69L323,164.92l-24.26,9.74-7.53-3.15-8-23.37h-13L281.34,150l6.84,20.27L279,166.41l19.31,10.13,26.07-10.69h.11L342.86,177l-.17,16.54-5-2.84-5.25,6.51-13.86-6.49,13.3,8.84,6.6-7.13,4.2,2.51,2.8,29.53-1.42.59v1.5L337.51,224l1.3-4.57-4.12-4.68,1.12-3.75-2.06,3.56,3.19,4.31-1.1,5.11-5.09,4.08-7.57,2.36-.23-.1,4.05-4.89,2.25-8.06-7.69-10.5L326.81,218l-2,7.35-4.21,3.9v0l-4.89-2.38L294,199.79l-37.5,2.62,4.88,1.88,12.37-.76-6.46,9.57-4.78-1.32,6.1,2.12,8.15-10.55,15.37-.94,19.41,22.43L289.18,214l.84,2.34,2.39,1.48-11.34,6.44-10.6-6.37,10.34,8,14.05-6.52,22.6,13.92-18,2.18-8.81-4.87-3.75-3.19-2.82.94,4.32,2.43L300,236.54l.14,0-2.37,3.12-5.46-1.28-.56-3.84-.66,1.45.52.71.42,2-1.69,1.59-1.59-2.91.84-1.59-1.26,1.87,1.83,3-.75,1.64-1.18,0,1.74.38.61-2.06,1.69-1.5,5.36,1.12,2.18,8.91-2.06,5.81,3-5.67,6.95,7.55-3.1,5.9,4.79-6.65L301,248.7l.28-.54-2.25-8.25,3.77-3.61,15.94-1.3,1,20.26,19.28,4-6,6.51s-11.14,11.4-11.67,11.26c-.14,0-4.12,1.65-6.63,1.2a6.61,6.61,0,0,1-4.24-3.18l1.85,5,11.8-2L339,262l1.71-2.45,15.13,3.12.41,21.36,23.82-3.34,22.3,1.2.74-3-22.85-1-20.18,3.31.53-21.22-.91-.19-2-7.89,4.37-7-.4-9.55-.66,7-4.77,9.28,1.67,7.78-34.42-7.38.52-20.61,6.73-2.25,5.63-4.12,7.24,2.47-1.06,6-4.68,1.12,6-.56.72-6.2h0l2-3.14h15.85L390.59,238l29.54,29.26,1.88-1.46L395.2,237l6.8-12.06.75-13.56,21.78-7,12.2-7.69,5.56,24.66L464,234.58l2.74-1-22.36-13.85-6.37-24.93-13.26,7.69L403,207.06l.14-2.4-12.75-11.25-.62-3.29,7.94-2.6,4.21,2.38L399.38,197l3.18-7.31-4-3-1.77-9-4.31,2.06h3.75l1.31,6.38L389.41,188l.59-4-.73,1.63L388,184l-3.51-1.64-2.16,3.09,2.25-2.39,2.77,1.17,1.69,2-.76,1.69.57,4.43-1.52,1.51-9.31.68-2.62,7.12,3.37-5.62h9.67l12.08,10.12-1.13,17.89-6.73,10.54L363,222.12l-13.79-1.06-3.15-27.7,2.05-18.63,7-13.57,9-1.87,1.5-13.13-3.75,11.25-8.63,1.5-7,14.4L314.29,155.6,306.19,137ZM589.33,234.16l-1.33,3.5-2,.21Zm-262.91,56.1,1.06,4.78-2.48,3.3-2.83-5.43,1.07,6.9,5.56,6.89-5.56,12.47.09.11-1.95-1.44-4.24,18-16.44-9.54-2,.39-5.44-7.82-.08,0-1.51-4.53,1.59-6.89-2.91,6.36,1.45,5.35-11,2.34-5.57-2.91-7.69,5.83,6.1-4,6.63,2.12L293,321l4.09,6-8.22,1.64L279,323.14l-18.82,2.92,2.91.8L279.22,325l6,4.43-.87.17,2.07,4.15,11.21-1.55-6.89,5-4.59,9.5L271,336.67h-2.65l19.35,12.46,5.84-10.63,8.84-6.55,12.43,6.39,1.27,13.71,10.34.53,1.85,9,.53-12.19-11.13,1.06,1.22-10,1.43.74,3.71-18,32.24,22.68-8.64,11.26,5,14.59-1.59,5.3,4.51-6.89-6.37-12.73,9.53-10.82,5.53-4.08,15.78,4.71,6.38,23.63,15.94-6.38,22.12-3.94-1.31-5.06-22.31,7.13-12.57,6.93L381,346l-15.41-4.56,11.33-8.37,24-5.82-.5-2-20.35,5,5.13-8.7-10.47-2.59,2.91-6.39,11.24-2.06,13.88-11.44,2.06-2.62-16.75,12.78-11.75,2.22-.06.13-12.69-4.82-4.31,3.37-5.06-1.12,6.19,2.62,3.37-2.62,11.67,4.23-3.08,6.23,11.34,2.31-5.32,8.88-2.36.59-18,13.55L325.68,321l5.78-14-5.25-6.68,2.59-4.19Z" transform="translate(-89.09 -124.3)"/></g><g id="layer9"><g id="layer24"><g id="g8169"><path id="path8171" class="cls-13" d="M401.21,487.23c-6.77.44-11.11-10.48-17.56-15.14-1.58-1.14-4.65,0-5.61,1.7-1.79,3.22.47,7.84,2.81,10.69,5.12,6.24,14,14.47,19.46,15,2.25.24,2.72-3.88,2.86-6.13S403.37,487.09,401.21,487.23Z" transform="translate(-89.09 -124.3)"/><path id="path8173" class="cls-14" d="M382.7,473.51c-3.41-1.13-4.34,3.36-3,6A42.52,42.52,0,0,0,393.28,495c2.2,1.58,8.65,4.74,11.15,4.08,1.3-2.77.55-7.21-.76-10-8.6.28-12.39-7.05-16-11.19-1.32-1.54-3.07-3.65-5-4.3Z" transform="translate(-89.09 -124.3)"/></g><g id="g8165"><path id="path8147" class="cls-13" d="M495.07,484.43c6.77-.26,9.95-11.58,15.87-16.89,1.46-1.3,4.63-.49,5.76,1.1,2.12,3,.35,7.85-1.67,10.93-4.44,6.74-12.37,15.85-17.78,17-2.2.47-3.11-3.57-3.49-5.79S492.91,484.52,495.07,484.43Z" transform="translate(-89.09 -124.3)"/><path id="path8155" class="cls-14" d="M512,468.85c3.27-1.48,4.67,2.89,3.64,5.66-2.43,6.59-6.84,12.1-11.92,16.77-1.76,1.63-7.61,4.33-10.12,4.22a11.24,11.24,0,0,1-1-9.09c9.43.43,11.7-8.22,14.84-12.76C508.66,472,510.18,469.7,512,468.85Z" transform="translate(-89.09 -124.3)"/></g><g id="g4882"><path id="path4884" class="cls-13" d="M422.13,559.94c-6.59,1.6-7.48,13.31-12.25,19.68-1.17,1.57-4.44,1.4-5.85,0-2.68-2.53-1.89-7.62-.51-11,3-7.48,9-18,14.09-20.16,2.07-.9,3.74,2.89,4.55,5S424.23,559.43,422.13,559.94Z" transform="translate(-89.09 -124.3)"/><path id="path4886" class="cls-14" d="M408.55,578.55c-2.91,2.1-5.14-1.91-4.68-4.83,1.09-6.94,4.33-13.21,8.39-18.79,1.41-1.94,6.62-5.73,9.1-6.12a11.24,11.24,0,0,1,2.74,8.72c-9.34,1.43-9.86,10.36-12.05,15.43C411.25,574.82,410.21,577.36,408.55,578.55Z" transform="translate(-89.09 -124.3)"/></g><g id="g4896"><path id="path4898" class="cls-13" d="M472.41,556.49c6.41,2.24,6.13,14,10.24,20.8,1,1.67,4.28,1.83,5.82.63,2.92-2.25,2.64-7.4,1.6-10.93-2.26-7.75-7.18-18.78-12-21.47-2-1.09-4,2.51-5,4.52S470.38,555.78,472.41,556.49Z" transform="translate(-89.09 -124.3)"/><path id="path4900" class="cls-14" d="M484.08,576.36c2.69,2.37,5.31-1.4,5.14-4.35-.4-7-3-13.57-6.48-19.53-1.22-2.06-6-6.36-8.45-7a11.22,11.22,0,0,0-3.59,8.41c9.14,2.35,8.78,11.28,10.45,16.54C481.77,572.37,482.55,575,484.08,576.36Z" transform="translate(-89.09 -124.3)"/></g></g><g id="layer20"><path id="path7378" class="cls-13" d="M460.37,442.86c-.18,6.45,2.77,12.55,7.48,17.12a27.52,27.52,0,0,0,18.26,7.82,25.19,25.19,0,0,0,18.08-6.75,23.78,23.78,0,0,0,7.6-16.73A22.1,22.1,0,0,0,505.53,428c-4-4.11-9.83-6.62-16.93-6.81A32,32,0,0,0,469.18,427c-5.25,3.84-8.63,9.43-8.81,15.88Z" transform="translate(-89.09 -124.3)"/><path id="circle7388" class="cls-10" d="M463.46,442.38A21,21,0,0,0,470.09,458a25,25,0,0,0,16.55,7.22,22.93,22.93,0,0,0,16.49-6A21.9,21.9,0,0,0,510.21,444a20.06,20.06,0,0,0-5.54-14.9c-3.66-3.78-8.93-6.1-15.39-6.32A28.92,28.92,0,0,0,471.61,428,18.71,18.71,0,0,0,463.46,442.38Z" transform="translate(-89.09 -124.3)"/><path id="ellipse7392" class="cls-13" d="M382.45,447.94a22,22,0,0,0,7.93,16.43,28,28,0,0,0,18.36,6.52,26.85,26.85,0,0,0,18-6.71,21.49,21.49,0,0,0,7.14-16.51,25.94,25.94,0,0,0-7.66-17.54,25.18,25.18,0,0,0-18.09-7.72,26.09,26.09,0,0,0-18.3,7.91,24.56,24.56,0,0,0-7.39,17.62Z" transform="translate(-89.09 -124.3)"/><path id="ellipse7394" class="cls-10" d="M383.78,446.52A20.81,20.81,0,0,0,391.13,462a25.94,25.94,0,0,0,17.1,6.18,24.81,24.81,0,0,0,16.8-6.25,20.27,20.27,0,0,0,6.69-15.5,24.35,24.35,0,0,0-7.1-16.48,23.44,23.44,0,0,0-16.85-7.26A24.15,24.15,0,0,0,390.71,430a23.08,23.08,0,0,0-6.93,16.51Z" transform="translate(-89.09 -124.3)"/></g><g id="layer5" class="cls-15"><path id="path5150" d="M406.52,579.08a3.5,3.5,0,0,1-2.26-2.31,6,6,0,0,1-.43-2.26,4.51,4.51,0,0,1,.09-1,36.85,36.85,0,0,1,2.82-9.18c.23-.51.59-1.28.61-1.3a4.33,4.33,0,0,1,.43.33,33.46,33.46,0,0,0,5.75,3.71l.44.23-.23.7c-.13.39-.4,1.22-.6,1.85a29.75,29.75,0,0,1-1.35,3.68,14,14,0,0,1-2.62,4.47,3.69,3.69,0,0,1-1.66,1.06,2.76,2.76,0,0,1-1,0Z" transform="translate(-89.09 -124.3)"/><path id="path5152" d="M485.41,577c-1.11-.21-2.25-1.47-3.12-3.45a42.17,42.17,0,0,1-1.4-4.2c-.11-.43-.41-1.78-.67-3s-.53-2.38-.59-2.6l-.11-.41.44-.29a46.87,46.87,0,0,0,5.17-4.14,4.19,4.19,0,0,1,.61-.52s.19.42.39.91a39,39,0,0,1,3,12.4,5.47,5.47,0,0,1-.6,3.15c-.76,1.56-1.94,2.37-3.13,2.14Z" transform="translate(-89.09 -124.3)"/><path id="path5154" d="M498.87,493.52c.4-3,.64-4.46,1-6.39.27-1.25.32-1.43.37-1.65a17.43,17.43,0,0,1,1.74-1.89A27.83,27.83,0,0,0,507,477.7c2.48-4.46,3.68-7.37,5.4-8.16a2.12,2.12,0,0,1,2.43.25c.75.71,1.22,1.15,1.09,3.19-.22,3.26-4.25,10-8.94,15-3,3.23-4.8,4.59-7.39,5.7l-.74.31.07-.5Z" transform="translate(-89.09 -124.3)"/><path id="path5156" d="M396.57,496.72a40.94,40.94,0,0,1-16.69-17,4.27,4.27,0,0,1-.58-2.75c0-1.34-.1-1.79.36-2.25,1.2-1.21,2.42-1.12,4.55.56a34.65,34.65,0,0,1,4.14,4.91c3.27,4.19,5.32,7.51,7.86,7.64l1.63.47.23,1.12a52,52,0,0,1,1.05,6.83,10,10,0,0,1,0,1.69s-1.19-.56-2.57-1.25Z" transform="translate(-89.09 -124.3)"/></g><g id="layer18"><path id="path7372" class="cls-13" d="M495.31,429.31c-14.26-16.59-36.24-21.75-57.4-19.42-18.43,2-38,7.35-48.81,23.42-7.15,10.68-4.36,19.82.23,32.11s12.34,26,9.24,39.76c-2.14,9.52-7.28,18.92-5.78,29.2,1.87,12.83,7.92,25.53,19.52,32,13.27,7.42,29.28,8,43.92,5.65,14.14-2.26,28.58-9,35.94-22.07,5.59-9.9,8.55-21.19,7.3-32.53s-1.9-21.23.81-32.36c3.2-13.14,3-26.52,1.49-39.85-.62-5.52-2.79-11.64-6.46-15.92Z" transform="translate(-89.09 -124.3)"/><path id="path7374" class="cls-16" d="M494.41,430.82c-11.2-13.5-31.25-20.07-48.78-19.74-20.27.39-44.79,7.7-55.48,24.92-6.21,10-2.08,17.28,2.43,30.32,3.31,9.56,8.41,23.51,8.94,33.62.51,9.74-7.17,18.73-6.73,28.48.42,9.32,2.95,19.34,8.88,26.54s15.19,12.2,24.39,13.84c16.88,3,36.29.86,50.74-8.35,8.55-5.46,14-15.49,17.14-25.14,3.85-12-.12-25.28.85-37.87.86-11.05,4.76-21.89,4.39-33-.38-11.44.53-24.85-6.77-33.65Z" transform="translate(-89.09 -124.3)"/></g><g id="layer21"><g id="g7429"><path id="path7413" class="cls-13" d="M474.81,424.3c-.37-6.49,1.29-11.54,6.19-15.8a7.54,7.54,0,0,1,7.41-1.8c3.1,1,4.75,3.35,5.63,6.48,1,3.5-2.53,5.68-4.2,7.11-4.42,3.77-8.84,4.53-11.64,5.77C477.07,426.56,474.92,426.28,474.81,424.3Z" transform="translate(-89.09 -124.3)"/><path id="path7415" class="cls-16" d="M474.62,425.27c-.08-5.66,2.1-12.12,6.47-15.92a7,7,0,0,1,6.77-1.63c2.76.89,4.23,3,5,5.77.87,3.13-2.23,5.08-3.76,6.34a50.82,50.82,0,0,1-11.48,7C476.59,427.26,474.64,427,474.62,425.27Z" transform="translate(-89.09 -124.3)"/></g><g id="g4890"><path id="path4892" class="cls-13" d="M409.06,428c.37-6.48-1.3-11.53-6.2-15.79a7.51,7.51,0,0,0-7.4-1.8c-3.1,1-4.76,3.34-5.64,6.48-1,3.5,2.54,5.68,4.21,7.11,4.42,3.77,8.83,4.53,11.64,5.76C406.8,430.23,409,430,409.06,428Z" transform="translate(-89.09 -124.3)"/><path id="path4894" class="cls-16" d="M409.25,428.94c.08-5.66-2.1-12.11-6.47-15.91a7,7,0,0,0-6.77-1.64c-2.76.9-4.23,3-5,5.78-.88,3.12,2.23,5.08,3.76,6.33a50.7,50.7,0,0,0,11.48,7C407.27,430.94,409.23,430.67,409.25,428.94Z" transform="translate(-89.09 -124.3)"/></g></g><g id="layer1"><g id="g4904"><path id="path4906" class="cls-13" d="M424.16,532.72c-.56.1-2.29-1.26-5.84-2.48-.87-.3-2,.89-2.18,2-.27,2,1.61,4,3.08,5.08,3.23,2.3,4.32,2.07,6.5,2.07,1,0,.57-2.56.28-3.77S425.15,532.55,424.16,532.72Z" transform="translate(-89.09 -124.3)"/><path id="path4908" class="cls-14" d="M418.13,531.17c-1.67.06-1.36,2.6-.37,3.74,2.36,2.71,2.49,2.41,5.56,3.52a4.6,4.6,0,0,0,3.69-.49,7.07,7.07,0,0,0-1.45-4.81c-1.21.6-3.77-.33-4.56-.66S419.08,531.14,418.13,531.17Z" transform="translate(-89.09 -124.3)"/></g></g><g id="layer4" class="cls-15"><path id="path4982" d="M477,422.71c-2.54,3.68-11.46-3.29-16.62-4.18-17.29-3-34,2.59-50.51,8.84-5.6,2.12-3.47-10.65-10.45-12.45-6.23-1.61-7.4,5.68-.91,8.59,5.88,2.64,5.94,7.46-.06,13-7.94,7.3-4.55,19.63-2.13,29,3.51,13.65,11.42,27.2,9,41.62-1.74,10.26-7.26,20-5.63,30.77,1.46,9.7,4.61,20.16,13.73,25.29,15.83,8.92,35.18,9,52.31,4.37a39.16,39.16,0,0,0,24.86-20.89,35.43,35.43,0,0,0,2.05-24.26,54.23,54.23,0,0,1-.43-26.19c2.07-8.56,2.48-17.34,2.52-26.12,0-11.81,1.42-24.46-4.19-35.49-2.32-4.56-16.22-9.25-6.6-13.17,5.12-2.09,11.23-8,4.21-11.76-5.72-3.09-8.58,9.36-11.11,13Z" transform="translate(-89.09 -124.3)"/></g></g></g><g id="sls"><g id="bolt" class="cls-11"><path class="cls-17" d="M443,289.48l-23.08,19.3,9-14L417,296.54" transform="translate(-89.09 -124.3)"/><path class="cls-17" d="M442.07,276.24l-10,14.38L443,289.48l.07,6-23.2,19.58,0-6.2,1.26-2" transform="translate(-89.09 -124.3)"/><path class="cls-17" d="M426.44,298.47l-9.39,1.43v-3.37l25-20.29-.05,6.45-4.72,7.39" transform="translate(-89.09 -124.3)"/></g></g><g id="lambda"><path class="cls-18" d="M476.9,304.9h-5.46a.73.73,0,0,1-.66-.41L463.12,288H460a.72.72,0,0,1-.72-.72v-4.73a.72.72,0,0,1,.72-.72h6.83a.74.74,0,0,1,.64.42l7.64,16.46h1.76a.72.72,0,0,1,.72.72v4.72A.72.72,0,0,1,476.9,304.9Zm-5-1.44h4.32v-3.28H474.7a.74.74,0,0,1-.66-.42l-7.63-16.46h-5.66v3.29h2.83a.73.73,0,0,1,.66.42Z" transform="translate(-89.09 -124.3)"/><path class="cls-18" d="M462.05,304.9H456.2a.72.72,0,0,1-.71-.72.64.64,0,0,1,.07-.31l6.11-12.8a.72.72,0,0,1,.65-.41h0a.72.72,0,0,1,.64.4l2.93,6.05a.68.68,0,0,1,0,.62l-3.19,6.76A.72.72,0,0,1,462.05,304.9Zm-4.7-1.44h4.24l2.88-6L462.31,293Z" transform="translate(-89.09 -124.3)"/><path class="cls-18" d="M466.78,311.65a16.92,16.92,0,1,1,16.92-16.92A16.92,16.92,0,0,1,466.78,311.65Zm0-32.39a15.48,15.48,0,1,0,15.48,15.47A15.48,15.48,0,0,0,466.78,279.26Z" transform="translate(-89.09 -124.3)"/></g><g id="dynamo"><g id="Icon_Test" data-name="Icon Test" class="cls-11"><path class="cls-19" d="M459.44,340.37l-5,5a12.18,12.18,0,0,0,2.57-1,1.92,1.92,0,0,1,.89,1.35c0,1.38-2.92,2.88-7.25,3.49a31.85,31.85,0,0,1-4,.28h-.75c-6.08-.14-10.53-2.06-10.53-3.76a1.92,1.92,0,0,1,.89-1.35c2.37,1.31,6.19,2.1,10.39,2.1h.08l.42-1.51h-.5c-4.14,0-8-.82-10-2.11-.81-.54-1.26-1.11-1.27-1.62v-3.48c2.3,1.76,6.89,2.68,11.28,2.68a17.35,17.35,0,0,0,1.77-.06l.43-1.5c-.76.05-1.45.07-2.2.07-6.45,0-11.28-2-11.28-3.76a1.92,1.92,0,0,1,.89-1.35,20.87,20.87,0,0,0,8.89,2.06l0-1.5c-3.55-.18-6.77-.94-8.54-2.08-.81-.52-1.26-1.1-1.27-1.62v-3.47c2.3,1.76,6.89,2.68,11.28,2.68h.17l.79-1.51h-1c-6.45,0-11.28-2-11.28-3.76s4.83-3.76,11.28-3.76a27,27,0,0,1,6.45.75h4.13c-2.25-1.37-6.15-2.25-10.58-2.25-6.2,0-12.79,1.83-12.79,5.26v6.06a3,3,0,0,0,1.14,2.21,3.08,3.08,0,0,0-1.14,2.26v6a3.08,3.08,0,0,0,1.14,2.26,3,3,0,0,0-1.14,2.25v6.18c.21,3.3,6.68,5.07,12.79,5.07s12.58-1.77,12.79-5.09v-6.17a3,3,0,0,0-1.14-2.26,3.07,3.07,0,0,0,1.14-2.26Zm-1.51,11.28c0,1.78-4.83,3.76-11.28,3.76s-11.28-2-11.28-3.76v-3.46c2.3,1.75,6.89,2.67,11.28,2.67s9-.92,11.28-2.67Z" transform="translate(-89.09 -124.3)"/><circle class="cls-19" cx="348.53" cy="206.33" r="0.94"/><circle class="cls-19" cx="348.53" cy="216.86" r="0.94"/><circle class="cls-19" cx="348.53" cy="227.39" r="0.94"/><path class="cls-19" d="M448.53,348.65a.87.87,0,0,1-.38-.11.75.75,0,0,1-.34-.87L452,333.6h-4.26a.74.74,0,0,1-.76-.74.78.78,0,0,1,.09-.37l4.51-9a.76.76,0,0,1,.67-.41h9.78a.76.76,0,0,1,.79.71.77.77,0,0,1,0,.27l-1.92,5.79h4.22a.76.76,0,0,1,.75.75.81.81,0,0,1-.21.52l-16.55,17.3A.77.77,0,0,1,448.53,348.65ZM449,332.1h4a.75.75,0,0,1,.73,1l-3.62,12,13.17-13.77h-3.51a.76.76,0,0,1-.79-.71.86.86,0,0,1,0-.28l1.93-5.78h-8.28Z" transform="translate(-89.09 -124.3)"/></g></g></svg>